<mxfile host="app.diagrams.net" agent="Mozilla/5.0 (Windows NT 10.0; Win64; x64) AppleWebKit/537.36 (KHTML, like Gecko) Chrome/135.0.0.0 Safari/537.36" version="26.1.0">
  <diagram name="Página-1" id="dAoM9cPHp3C6NwPDCCun">
    <mxGraphModel dx="1434" dy="1941" grid="1" gridSize="10" guides="1" tooltips="1" connect="1" arrows="1" fold="1" page="1" pageScale="1" pageWidth="827" pageHeight="1169" math="0" shadow="0">
      <root>
        <mxCell id="0" />
        <mxCell id="1" parent="0" />
        <mxCell id="QJFF5AJONqdV9p7oYpbU-10" style="edgeStyle=orthogonalEdgeStyle;rounded=0;orthogonalLoop=1;jettySize=auto;html=1;exitX=1;exitY=0.5;exitDx=0;exitDy=0;" edge="1" parent="1" source="QJFF5AJONqdV9p7oYpbU-1" target="QJFF5AJONqdV9p7oYpbU-8">
          <mxGeometry relative="1" as="geometry" />
        </mxCell>
        <mxCell id="QJFF5AJONqdV9p7oYpbU-1" value="" style="rounded=0;whiteSpace=wrap;html=1;" vertex="1" parent="1">
          <mxGeometry x="20" y="200" width="120" height="60" as="geometry" />
        </mxCell>
        <mxCell id="QJFF5AJONqdV9p7oYpbU-2" value="ESP32&lt;div&gt;(local)&lt;/div&gt;&lt;div&gt;Emissor&lt;/div&gt;" style="text;html=1;align=center;verticalAlign=middle;whiteSpace=wrap;rounded=0;" vertex="1" parent="1">
          <mxGeometry x="50" y="215" width="60" height="30" as="geometry" />
        </mxCell>
        <mxCell id="QJFF5AJONqdV9p7oYpbU-3" value="" style="rounded=0;whiteSpace=wrap;html=1;" vertex="1" parent="1">
          <mxGeometry x="354" y="200" width="120" height="60" as="geometry" />
        </mxCell>
        <mxCell id="QJFF5AJONqdV9p7oYpbU-4" value="ESP32 OR RHASP" style="text;html=1;align=center;verticalAlign=middle;whiteSpace=wrap;rounded=0;" vertex="1" parent="1">
          <mxGeometry x="384" y="215" width="60" height="30" as="geometry" />
        </mxCell>
        <mxCell id="QJFF5AJONqdV9p7oYpbU-7" style="edgeStyle=orthogonalEdgeStyle;rounded=0;orthogonalLoop=1;jettySize=auto;html=1;exitX=0.5;exitY=1;exitDx=0;exitDy=0;entryX=0.5;entryY=0;entryDx=0;entryDy=0;" edge="1" parent="1" source="QJFF5AJONqdV9p7oYpbU-5" target="QJFF5AJONqdV9p7oYpbU-3">
          <mxGeometry relative="1" as="geometry" />
        </mxCell>
        <mxCell id="QJFF5AJONqdV9p7oYpbU-5" value="&lt;h1 style=&quot;margin-top: 0px;&quot;&gt;&lt;font style=&quot;font-size: 12px;&quot;&gt;ESP RECEPTOR&lt;/font&gt;&lt;/h1&gt;&lt;div&gt;Vai receber dados do ESP32 remoto para enviar para o back-end&lt;/div&gt;" style="text;html=1;whiteSpace=wrap;overflow=hidden;rounded=0;" vertex="1" parent="1">
          <mxGeometry x="354" width="180" height="120" as="geometry" />
        </mxCell>
        <mxCell id="QJFF5AJONqdV9p7oYpbU-11" style="edgeStyle=orthogonalEdgeStyle;rounded=0;orthogonalLoop=1;jettySize=auto;html=1;exitX=0.875;exitY=0.5;exitDx=0;exitDy=0;exitPerimeter=0;" edge="1" parent="1" source="QJFF5AJONqdV9p7oYpbU-8">
          <mxGeometry relative="1" as="geometry">
            <mxPoint x="350" y="230" as="targetPoint" />
          </mxGeometry>
        </mxCell>
        <mxCell id="QJFF5AJONqdV9p7oYpbU-8" value="MQTT&lt;div&gt;or&lt;/div&gt;&lt;div&gt;LORA&lt;/div&gt;" style="ellipse;shape=cloud;whiteSpace=wrap;html=1;" vertex="1" parent="1">
          <mxGeometry x="190" y="190" width="120" height="80" as="geometry" />
        </mxCell>
        <mxCell id="QJFF5AJONqdV9p7oYpbU-25" style="edgeStyle=orthogonalEdgeStyle;rounded=0;orthogonalLoop=1;jettySize=auto;html=1;exitX=0.875;exitY=0.5;exitDx=0;exitDy=0;exitPerimeter=0;" edge="1" parent="1" source="QJFF5AJONqdV9p7oYpbU-14">
          <mxGeometry relative="1" as="geometry">
            <mxPoint x="750" y="230" as="targetPoint" />
          </mxGeometry>
        </mxCell>
        <mxCell id="QJFF5AJONqdV9p7oYpbU-14" value="NODE-RED" style="ellipse;shape=cloud;whiteSpace=wrap;html=1;" vertex="1" parent="1">
          <mxGeometry x="580" y="190" width="120" height="80" as="geometry" />
        </mxCell>
        <mxCell id="QJFF5AJONqdV9p7oYpbU-17" value="&lt;h1 style=&quot;margin-top: 0px;&quot;&gt;&lt;font style=&quot;font-size: 12px;&quot;&gt;Node-red&lt;/font&gt;&lt;/h1&gt;&lt;p&gt;Responsável por receber os dados do ESP32 em tempo real e transmiti-los à web via WebSocket, garantindo comunicação full-duplex e baixa latência.&lt;/p&gt;" style="text;html=1;whiteSpace=wrap;overflow=hidden;rounded=0;" vertex="1" parent="1">
          <mxGeometry x="620" y="-30" width="180" height="139" as="geometry" />
        </mxCell>
        <mxCell id="QJFF5AJONqdV9p7oYpbU-21" style="edgeStyle=orthogonalEdgeStyle;rounded=0;orthogonalLoop=1;jettySize=auto;html=1;exitX=0.875;exitY=0.5;exitDx=0;exitDy=0;exitPerimeter=0;" edge="1" parent="1" source="QJFF5AJONqdV9p7oYpbU-19">
          <mxGeometry relative="1" as="geometry">
            <mxPoint x="580" y="220" as="targetPoint" />
            <Array as="points">
              <mxPoint x="570" y="220" />
              <mxPoint x="570" y="220" />
            </Array>
          </mxGeometry>
        </mxCell>
        <mxCell id="QJFF5AJONqdV9p7oYpbU-19" value="&lt;font style=&quot;font-size: 10px;&quot;&gt;MQTT&lt;/font&gt;&lt;div&gt;&lt;font size=&quot;3&quot;&gt;IN&lt;/font&gt;&lt;/div&gt;" style="ellipse;shape=cloud;whiteSpace=wrap;html=1;" vertex="1" parent="1">
          <mxGeometry x="510" y="200" width="50" height="40" as="geometry" />
        </mxCell>
        <mxCell id="QJFF5AJONqdV9p7oYpbU-20" style="edgeStyle=orthogonalEdgeStyle;rounded=0;orthogonalLoop=1;jettySize=auto;html=1;exitX=1;exitY=0.5;exitDx=0;exitDy=0;entryX=0.07;entryY=0.4;entryDx=0;entryDy=0;entryPerimeter=0;" edge="1" parent="1" source="QJFF5AJONqdV9p7oYpbU-3" target="QJFF5AJONqdV9p7oYpbU-19">
          <mxGeometry relative="1" as="geometry" />
        </mxCell>
        <mxCell id="QJFF5AJONqdV9p7oYpbU-23" style="edgeStyle=orthogonalEdgeStyle;rounded=0;orthogonalLoop=1;jettySize=auto;html=1;exitX=0.5;exitY=1;exitDx=0;exitDy=0;entryX=0.458;entryY=0.05;entryDx=0;entryDy=0;entryPerimeter=0;" edge="1" parent="1" source="QJFF5AJONqdV9p7oYpbU-17" target="QJFF5AJONqdV9p7oYpbU-14">
          <mxGeometry relative="1" as="geometry" />
        </mxCell>
        <mxCell id="QJFF5AJONqdV9p7oYpbU-24" value="FRONT-END" style="icon;html=1;image=img/clipart/Gear_128x128.png" vertex="1" parent="1">
          <mxGeometry x="760" y="200" width="60" height="60" as="geometry" />
        </mxCell>
        <mxCell id="QJFF5AJONqdV9p7oYpbU-26" value="BACK-END" style="shape=cylinder3;whiteSpace=wrap;html=1;boundedLbl=1;backgroundOutline=1;size=15;" vertex="1" parent="1">
          <mxGeometry x="610" y="340" width="60" height="80" as="geometry" />
        </mxCell>
        <mxCell id="QJFF5AJONqdV9p7oYpbU-27" style="edgeStyle=orthogonalEdgeStyle;rounded=0;orthogonalLoop=1;jettySize=auto;html=1;exitX=0.55;exitY=0.95;exitDx=0;exitDy=0;exitPerimeter=0;entryX=0.5;entryY=0;entryDx=0;entryDy=0;entryPerimeter=0;" edge="1" parent="1" source="QJFF5AJONqdV9p7oYpbU-14" target="QJFF5AJONqdV9p7oYpbU-26">
          <mxGeometry relative="1" as="geometry" />
        </mxCell>
      </root>
    </mxGraphModel>
  </diagram>
</mxfile>
